<svg width="18" height="17" viewBox="0 0 18 17" fill="none" xmlns="http://www.w3.org/2000/svg">
<path d="M4 4H17C17.037 4.00005 18 4.00127 18 5L17 11C16.911 11.491 16.5709 12 16.0642 12H6L6.09506 13.2985C6.16424 13.6291 6.45721 14 6.79145 14H15.6066C15.6443 14 15.6808 14.0054 15.7158 14.0155C16.441 14.1204 17 14.7462 17 15.5C17 16.3271 16.3271 17 15.5 17C14.6729 17 14 16.3271 14 15.5C14 15.3248 14.0302 15.1565 14.0857 15H7.91434C7.9698 15.1564 8 15.3248 8 15.5C8 16.3271 7.32711 17 6.5 17C5.67289 17 5 16.3271 5 15.5C5 15.0183 5.2282 14.589 5.58216 14.3143C5.39546 14.068 5.26019 13.7794 5.19962 13.4905L4.80856 11.6269L2 1H0.457618C0.204824 1 0 0.71822 0 0.462647C0 0.207075 0.204824 0 0.457618 0H2.56171C2.77221 0 2.95559 0.145345 3.00603 0.352063L4 4Z" fill="white"/>
</svg>
