<svg width="20" height="21" viewBox="0 0 20 21" fill="none" xmlns="http://www.w3.org/2000/svg">
<path fill-rule="evenodd" clip-rule="evenodd" d="M14.6234 1.81576L12.2249 1.81201C9.5302 1.81201 7.78878 3.55072 7.78878 6.24184V8.28428H5.37715C5.16875 8.28428 5 8.4487 5 8.6515V11.6108C5 11.8136 5.16895 11.9778 5.37715 11.9778H7.78878V19.445C7.78878 19.6478 7.95753 19.812 8.16593 19.812H11.3124C11.5208 19.812 11.6896 19.6476 11.6896 19.445V11.9778H14.5093C14.7177 11.9778 14.8865 11.8136 14.8865 11.6108L14.8876 8.6515C14.8876 8.55412 14.8478 8.46087 14.7772 8.39196C14.7066 8.32304 14.6103 8.28428 14.5103 8.28428H11.6896V6.55288C11.6896 5.72069 11.8933 5.29823 13.0073 5.29823L14.623 5.29767C14.8312 5.29767 15 5.13326 15 4.93064V2.18279C15 1.98036 14.8314 1.81613 14.6234 1.81576Z" fill="white"/>
</svg>
