<svg width="20" height="21" viewBox="0 0 20 21" fill="none" xmlns="http://www.w3.org/2000/svg">
<path fill-rule="evenodd" clip-rule="evenodd" d="M10 2.31201C12.3085 2.31201 12.5979 2.3218 13.5045 2.36316C14.4093 2.40443 15.0272 2.54813 15.5678 2.75827C16.1268 2.97546 16.6008 3.2661 17.0734 3.73864C17.5459 4.21121 17.8366 4.68524 18.0538 5.24419C18.2639 5.78485 18.4076 6.40275 18.4488 7.30747C18.4902 8.21409 18.5 8.50355 18.5 10.812C18.5 13.1205 18.4902 13.4099 18.4488 14.3166C18.4076 15.2213 18.2639 15.8392 18.0538 16.3798C17.8366 16.9388 17.5459 17.4128 17.0734 17.8854C16.6008 18.3579 16.1268 18.6486 15.5678 18.8658C15.0272 19.0759 14.4093 19.2196 13.5045 19.2609C12.5979 19.3022 12.3085 19.312 10 19.312C7.69154 19.312 7.40208 19.3022 6.49546 19.2609C5.59073 19.2196 4.97284 19.0759 4.43218 18.8658C3.87323 18.6486 3.3992 18.3579 2.92663 17.8854C2.45409 17.4128 2.16345 16.9388 1.94626 16.3798C1.73612 15.8392 1.59242 15.2213 1.55115 14.3166C1.50978 13.4099 1.5 13.1205 1.5 10.812C1.5 8.50355 1.50978 8.21409 1.55115 7.30747C1.59242 6.40275 1.73612 5.78485 1.94626 5.24419C2.16345 4.68524 2.45409 4.21121 2.92663 3.73864C3.3992 3.2661 3.87323 2.97546 4.43218 2.75827C4.97284 2.54813 5.59073 2.40443 6.49546 2.36316C7.40208 2.3218 7.69154 2.31201 10 2.31201ZM9.99734 13.6418C11.5616 13.6418 12.8298 12.3737 12.8298 10.8093C12.8298 9.24501 11.5616 7.97689 9.99734 7.97689C8.433 7.97689 7.16488 9.24501 7.16488 10.8093C7.16488 12.3737 8.433 13.6418 9.99734 13.6418ZM9.99734 6.44585C12.4072 6.44585 14.3608 8.39943 14.3608 10.8093C14.3608 13.2192 12.4072 15.1728 9.99734 15.1728C7.58742 15.1728 5.63383 13.2192 5.63383 10.8093C5.63383 8.39943 7.58742 6.44585 9.99734 6.44585ZM15.8556 6.18425C15.8556 6.75802 15.3904 7.22312 14.8166 7.22312C14.2429 7.22312 13.7778 6.75802 13.7778 6.18425C13.7778 5.61048 14.2429 5.14534 14.8166 5.14534C15.3904 5.14534 15.8556 5.61048 15.8556 6.18425Z" fill="white"/>
</svg>
