<svg width="20" height="21" viewBox="0 0 20 21" fill="none" xmlns="http://www.w3.org/2000/svg">
<path fill-rule="evenodd" clip-rule="evenodd" d="M18.979 5.17485C18.9532 5.14414 18.9106 5.13372 18.8743 5.15047C18.3361 5.39146 17.77 5.56471 17.1869 5.66707C17.8059 5.19699 18.2672 4.54604 18.5037 3.79962C18.5151 3.76389 18.5033 3.72481 18.4744 3.70155C18.4453 3.67829 18.4049 3.67531 18.373 3.69448C17.6758 4.11188 16.9206 4.4061 16.1276 4.5693C15.4248 3.83312 14.4435 3.41199 13.4278 3.41199C11.3623 3.41199 9.68211 5.10804 9.68211 7.19284C9.68211 7.445 9.70626 7.69474 9.75419 7.93722C6.89336 7.75894 4.21836 6.37255 2.3995 4.12063C2.38088 4.09755 2.35268 4.08471 2.32318 4.08769C2.29387 4.08993 2.26769 4.10667 2.25294 4.13217C1.9211 4.70682 1.74578 5.36429 1.74578 6.03311C1.74578 7.19229 2.2675 8.27609 3.15591 8.99125C2.69853 8.93579 2.25183 8.79046 1.84902 8.56472C1.82192 8.54928 1.78818 8.54946 1.76108 8.56528C1.73398 8.58091 1.71683 8.60995 1.7161 8.64158L1.71573 8.68997C1.71573 10.3548 2.8025 11.8165 4.3487 12.3019C3.94145 12.3681 3.51891 12.3636 3.10356 12.2836C3.07295 12.2778 3.04088 12.2885 3.01986 12.3123C2.99903 12.3361 2.99202 12.3694 3.00161 12.3995C3.46526 13.8604 4.75354 14.8848 6.25309 15.0125C5.00224 15.9376 3.5237 16.4249 1.96147 16.4249C1.67369 16.4249 1.38389 16.4076 1.09998 16.3739C1.05942 16.3693 1.01923 16.3937 1.00522 16.4329C0.991209 16.4726 1.00614 16.5169 1.04117 16.5394C2.73171 17.6338 4.68643 18.212 6.69425 18.212C13.2619 18.212 17.1865 12.8268 17.1865 7.62067C17.1865 7.47571 17.1837 7.33148 17.178 7.18763C17.8865 6.66453 18.4947 6.02418 18.9851 5.28297C19.007 5.24984 19.0046 5.20574 18.979 5.17485Z" fill="white"/>
</svg>
